<svg width="276" height="94" viewBox="0 0 276 94" fill="none" xmlns="http://www.w3.org/2000/svg">
<path d="M46.2561 1.75825C32.9892 4.62135 16.5944 11.8686 8.82836 18.3105C-4.65426 29.4945 -2.92849 36.5628 15.6236 45.7784C30.077 52.8466 33.3128 55.0834 33.3128 58.036C33.3128 61.4359 28.4591 65.3727 19.3987 69.041C15.5157 70.6515 11.9563 72.3515 11.5249 72.7988C10.662 73.8725 12.4956 76.9146 14.0057 76.9146C17.3494 76.9146 30.077 70.741 34.6071 66.9832C39.2452 63.1359 39.7845 62.2412 39.7845 58.8412C39.7845 55.0834 37.9508 51.773 34.3914 49.3572C33.5285 48.7309 28.1355 45.8678 22.5267 42.9153C9.15194 36.0259 5.91611 33.2523 6.88686 29.584C9.47553 19.8316 42.0495 5.15818 60.7095 5.42659C71.3877 5.51607 76.7808 9.72124 72.7899 14.7317C70.7406 17.3263 62.0038 20.9947 60.1702 20.1C58.8758 19.3842 55.9636 21.2631 55.9636 22.8736C55.9636 25.0209 59.523 25.8262 64.7003 24.9314C78.5065 22.3368 85.0861 11.8686 77.3201 4.80029C71.6034 -0.299599 61.0331 -1.37326 46.2561 1.75825Z" fill="black"/>
<path d="M205.782 17.2368L203.409 22.8735L190.25 24.484C183.024 25.2892 176.013 26.2734 174.826 26.5418C172.022 27.0787 170.835 29.4944 172.669 31.0154C173.856 31.9101 176.444 31.8207 186.907 30.2996C193.918 29.3155 199.85 28.6891 200.174 28.8681C200.389 29.1365 199.742 31.9101 198.556 35.0416C197.369 38.0837 195.859 43.0046 195.104 45.8677C194.241 49.5361 192.839 51.8623 190.358 54.0991C184.75 58.9306 183.994 58.3938 184.857 50.2518C185.505 44.4362 185.289 43.0941 183.887 42.1099C181.514 40.4994 177.199 41.5731 173.316 44.7941C169.433 47.9256 168.894 48.0151 170.512 45.2414C172.022 42.4678 170.943 40.231 168.247 40.231C166.413 40.231 165.55 41.752 162.746 49.3571C160.912 54.457 159.186 59.1096 158.863 59.8253C158.324 61.2569 160.265 63.4937 162.207 63.4937C162.962 63.4937 165.119 61.6148 166.952 59.199C168.786 56.8728 172.13 53.2044 174.611 50.9676L178.925 46.9414L178.278 51.9518C177.307 58.8411 179.68 62.599 184.75 62.599C186.691 62.599 188.956 61.9727 189.711 61.2569C191.868 59.1096 192.947 59.7359 192.3 62.599C191.221 66.8936 192.839 73.0672 195.751 76.0197C199.634 79.7775 203.841 79.6881 208.695 75.6618C212.793 72.2619 213.225 70.5619 210.636 68.7725C209.126 67.6988 208.479 67.9673 205.89 70.4725C204.38 71.9935 202.439 73.3356 201.792 73.3356C199.85 73.3356 198.34 69.3988 198.34 64.6568C198.34 60.0043 202.654 41.5731 205.567 33.5206C207.508 28.2418 207.616 28.1523 212.362 27.4365C215.058 26.9892 224.982 26.6313 234.473 26.6313C249.25 26.5418 252.702 26.8102 258.85 28.4207C262.733 29.4944 266.832 31.1944 268.018 32.268C269.852 33.8785 269.852 34.3259 268.45 36.4732C266.292 39.6942 258.203 42.9152 250.653 43.5415C245.367 43.9888 244.397 43.8099 242.455 42.1099C239.866 39.8731 238.464 39.7836 235.228 41.6626C231.345 43.8993 228.217 49.9834 228.11 55.2623C228.002 59.2885 228.433 60.3622 230.59 61.7937C236.307 65.641 243.426 62.0621 246.877 53.6518C247.956 50.9676 249.574 48.7308 250.329 48.6414C263.919 48.194 276 41.4836 276 34.4153C276 24.9313 252.055 19.1157 222.069 21.3525C215.813 21.7998 210.636 22.0682 210.42 21.8893C210.205 21.7104 210.852 20.3683 211.823 18.7578C214.088 15.0894 213.548 12.1369 210.636 11.779C208.695 11.5106 207.94 12.4053 205.782 17.2368ZM206.861 25.8261C204.38 27.526 201.576 28.2418 201.576 27.2576C201.576 26.005 207.616 22.5156 208.479 23.2314C209.126 23.7682 208.371 24.7524 206.861 25.8261ZM241.269 49.2677C241.592 52.7571 238.141 58.1254 235.552 58.1254C233.287 58.1254 233.503 54.0991 236.091 49.3571C238.572 44.7941 240.837 44.7941 241.269 49.2677ZM171.375 49.1782C171.267 49.4466 169.865 51.0571 168.139 52.7571C164.687 55.978 164.256 55.3517 165.982 49.894C167.06 46.8519 167.384 46.673 169.218 47.6572C170.404 48.194 171.375 48.9098 171.375 49.1782ZM196.183 56.0675C196.183 56.5149 195.751 57.3201 195.212 58.0359C194.026 59.5569 191.76 58.4833 192.623 56.7833C193.163 55.4412 196.183 54.9044 196.183 56.0675Z" fill="black"/>
<path d="M150.45 20.9944C148.077 21.6207 145.272 23.0523 143.978 24.0365C141.929 25.8259 141.929 26.0049 143.655 27.4364C145.272 28.868 145.704 28.7785 150.126 26.989C154.98 24.9312 158.432 24.4838 158.432 25.7364C158.432 26.1838 156.49 32.8942 154.225 40.7677C146.567 66.804 144.194 76.0196 144.841 77.4511C145.165 78.2564 146.459 78.7037 147.861 78.5248C150.018 78.2564 150.558 77.1827 152.715 69.3092C154.117 64.3883 157.245 53.4727 159.726 45.1518C164.795 27.6153 165.335 22.7839 162.315 20.905C159.618 19.3839 155.951 19.3839 150.45 20.9944Z" fill="black"/>
<path d="M129.74 40.0518C127.583 41.215 121.327 60.004 122.514 61.6145C124.779 64.6566 126.936 63.7619 129.848 58.5725C131.466 55.7989 134.594 51.9516 136.859 49.9832C140.311 46.9412 141.282 46.5833 144.194 47.0306C147.322 47.5675 147.645 47.3885 147.645 45.2412C147.645 41.4834 143.547 40.4097 137.938 42.736C134.271 44.1675 133.623 44.257 134.055 43.1833C134.486 42.3781 134.163 41.215 133.516 40.5887C132.113 39.1571 131.466 39.0676 129.74 40.0518ZM133.3 47.0306C133.839 48.2832 129.525 53.2042 128.446 52.3989C127.691 51.6832 130.496 45.5991 131.574 45.5991C132.113 45.5991 132.868 46.2254 133.3 47.0306Z" fill="black"/>
<path d="M209.558 40.0525C208.587 40.5894 204.488 51.0576 202.654 57.7679C201.792 60.8995 203.086 63.4941 205.351 63.4941C206.214 63.4941 208.587 60.7205 210.744 57.3206C215.598 49.7155 218.941 47.0313 223.472 46.9419C226.168 46.9419 227.031 46.4945 227.247 44.9735C227.463 43.4525 226.815 42.6472 224.766 41.842C222.285 40.8578 221.207 41.0367 217.539 42.6472C215.166 43.7209 213.548 44.1682 213.764 43.5419C214.303 42.2893 212.686 39.3368 211.499 39.3368C211.068 39.3368 210.205 39.6946 209.558 40.0525ZM213.225 48.1945C212.47 48.9997 210.96 50.4313 209.881 51.326C207.832 53.0259 207.832 52.9365 208.587 50.8786C210.852 44.9735 211.283 44.4367 212.901 45.5998C214.196 46.4945 214.303 47.0313 213.225 48.1945Z" fill="black"/>
<path d="M49.1683 43.9889C41.2945 55.1729 41.1866 64.7464 48.8447 63.1359C51.6491 62.599 60.7094 54.5466 60.9252 52.5782C61.1409 49.8046 61.4645 49.3572 62.8667 48.9098C64.916 48.2835 64.0531 52.3992 61.8959 54.2782C59.523 56.2465 59.9544 58.8412 63.0824 61.3464C65.1317 63.1359 66.4261 63.4937 68.5833 63.0464C70.7405 62.599 71.172 62.778 70.7405 63.7622C69.3383 66.8042 64.3767 86.6669 64.2689 89.8879C64.0531 93.1089 64.2689 93.4668 66.7497 93.4668C69.2305 93.4668 69.554 92.93 71.8191 84.0723C73.1134 78.8829 74.8392 72.262 75.5942 69.3094L77.1043 63.9411L82.0659 64.2095C86.4882 64.4779 87.459 64.2095 91.4498 61.257C94.2542 59.1991 96.5193 56.2465 98.0293 53.115C100.726 47.1204 100.726 45.4204 98.2451 42.9152C95.7642 40.41 92.3127 40.8574 87.2432 44.3468L83.8995 46.7625L84.5467 44.5257C84.9782 43.0942 84.6546 41.931 83.576 41.2153C80.8794 39.3364 78.9379 41.3942 76.4571 48.373C74.4078 54.0097 70.7405 58.1254 67.7204 58.1254C65.9946 58.1254 66.6418 52.9361 68.9069 48.1941C71.172 43.5415 70.6326 41.1258 67.289 41.1258C65.7789 41.1258 50.0312 56.0676 50.0312 57.4991C50.0312 58.036 49.384 58.5728 48.7369 58.7517C47.9818 59.0202 47.3347 58.5728 47.3347 57.7676C47.3347 56.9623 47.7661 56.336 48.1976 56.336C49.5998 56.336 56.1793 44.0784 55.7478 42.2889C55.1007 39.1574 51.8648 39.9627 49.1683 43.9889ZM83.7917 48.4625C84.0074 49.1783 82.8209 51.1466 81.0952 52.7571C79.4772 54.3676 78.0751 56.7834 77.9672 58.2149C77.6436 61.5254 76.7807 62.599 74.1921 62.599C71.2798 62.599 71.4955 59.557 74.6235 57.4991C76.0257 56.6044 78.0751 53.7413 79.0458 51.1466C80.8794 46.673 83.0367 45.4204 83.7917 48.4625ZM91.0184 53.2045C87.5668 58.1254 83.7917 60.4517 81.203 59.1991C79.5851 58.4833 80.2323 57.5886 86.1646 52.6677C93.607 46.4046 95.7642 46.673 91.0184 53.2045Z" fill="black"/>
<path d="M114.424 40.9469C104.393 43.3627 96.735 56.2466 102.128 61.7044C106.119 65.8201 119.062 63.0465 117.013 58.5729C116.366 57.0519 114.964 57.0519 108.6 58.6623C107.09 59.0202 106.658 58.6623 106.658 57.0519C106.658 55.1729 107.198 54.9045 110.326 54.9045C114.748 54.9045 119.062 52.6677 121.759 48.9099C124.347 45.4205 124.455 43.5416 122.19 41.6627C120.464 40.1417 118.523 40.0522 114.424 40.9469ZM117.444 46.4047C117.444 47.5678 111.62 50.9678 109.678 50.9678C108.923 50.9678 109.894 49.7152 111.836 48.2836C115.395 45.5995 117.444 44.8837 117.444 46.4047Z" fill="black"/>
<path d="M260.9 51.4151C258.742 53.6519 260.037 55.8887 263.596 55.8887C265.861 55.8887 266.94 55.4413 267.155 54.2782C267.587 52.3993 265.645 50.073 263.596 50.073C262.841 50.073 261.655 50.6993 260.9 51.4151Z" fill="black"/>
</svg>
